<?xml version="1.0" standalone="no"?>
<!DOCTYPE svg PUBLIC "-//W3C//DTD SVG 20010904//EN"
 "http://www.w3.org/TR/2001/REC-SVG-20010904/DTD/svg10.dtd">
<svg version="1.0" xmlns="http://www.w3.org/2000/svg"
 width="512.000000pt" height="512.000000pt" viewBox="0 0 512.000000 512.000000"
 preserveAspectRatio="xMidYMid meet">

<g transform="translate(0.000000,512.000000) scale(0.100000,-0.100000)"
fill="#ffffff" stroke="none">
<path d="M2412 5100 c-109 -29 -187 -74 -273 -160 -119 -118 -179 -259 -179
-423 0 -91 22 -183 62 -264 17 -35 29 -65 27 -67 -2 -1 -33 -16 -69 -33 -140
-65 -244 -168 -311 -308 -52 -109 -183 -628 -175 -693 13 -96 67 -177 150
-220 l51 -27 844 -3 c938 -3 909 -5 988 63 48 41 90 120 99 185 8 63 -128 605
-176 703 -68 135 -204 263 -334 312 -25 10 -46 20 -46 22 0 3 13 33 30 67 39
82 60 174 60 263 0 100 -15 164 -62 263 -32 67 -57 101 -117 160 -87 87 -165
132 -277 160 -96 25 -197 25 -292 0z m282 -314 c133 -65 198 -224 151 -367
-24 -72 -110 -159 -179 -182 -117 -40 -231 -14 -316 72 -62 62 -90 128 -90
210 0 222 233 365 434 267z m298 -894 c78 -31 150 -99 188 -175 18 -37 50
-145 80 -272 28 -115 53 -218 56 -227 5 -17 -36 -18 -756 -18 -720 0 -761 1
-756 18 3 9 30 118 61 241 31 123 65 241 76 263 47 93 145 166 249 187 25 5
203 9 395 7 339 -1 352 -2 407 -24z"/>
<path d="M4544 2835 c-134 -29 -154 -44 -491 -378 l-312 -310 -48 43 c-26 23
-70 54 -98 68 -96 48 -126 52 -486 52 l-336 0 -64 78 c-76 91 -163 153 -256
182 -60 18 -92 20 -382 20 -488 0 -457 14 -986 -438 l-210 -179 -30 22 c-88
66 -200 90 -303 66 -65 -16 -384 -200 -439 -253 -50 -49 -92 -139 -100 -211
-11 -112 -7 -121 387 -803 202 -352 384 -658 404 -681 73 -84 222 -130 334
-103 52 12 357 179 423 231 74 59 133 191 127 284 l-3 40 850 5 850 5 81 28
c154 52 175 71 905 803 617 620 678 685 706 744 55 116 66 221 35 341 -46 175
-185 305 -367 344 -84 18 -111 18 -191 0z m197 -319 c68 -45 98 -149 64 -220
-8 -17 -313 -331 -678 -698 -589 -593 -669 -670 -722 -695 l-60 -28 -911 -3
-910 -2 -243 420 c-133 231 -240 424 -236 430 3 5 139 123 303 261 194 165
316 261 352 278 l55 26 311 0 c310 0 311 0 345 -24 19 -13 52 -45 73 -72 66
-83 109 -121 166 -148 l55 -26 365 -5 c353 -5 366 -6 400 -27 87 -54 102 -170
31 -247 -52 -57 -39 -56 -688 -56 -549 0 -601 -1 -633 -18 -107 -53 -107 -205
0 -260 l44 -22 598 0 c406 0 614 4 650 11 202 43 339 194 373 409 4 31 53 83
353 381 255 254 356 349 382 357 49 16 118 6 161 -22z m-4078 -763 c15 -17
659 -1129 699 -1206 17 -34 18 -41 5 -60 -23 -35 -303 -190 -330 -183 -17 4
-109 157 -381 628 -307 532 -357 625 -350 645 10 27 284 192 320 193 11 0 28
-8 37 -17z"/>
</g>
</svg>
